<?xml version="1.0" encoding="UTF-8"?>
<svg xmlns="http://www.w3.org/2000/svg" xmlns:xlink="http://www.w3.org/1999/xlink" width="3375" height="3750" viewBox="0 0 3375 3750">
<path fill-rule="evenodd" fill="rgb(100%, 100%, 100%)" fill-opacity="1" d="M 18.097656 0 L 3356.898438 0 C 3366.929688 0 3375 8.070312 3375 18.101562 L 3375 3731.902344 C 3375 3741.925781 3366.929688 3750 3356.898438 3750 L 18.097656 3750 C 8.070312 3750 0 3741.925781 0 3731.902344 L 0 18.101562 C 0 8.070312 8.070312 0 18.097656 0 Z M 18.097656 0 "/>
<path fill-rule="evenodd" fill="rgb(77.734375%, 88.671875%, 55.664062%)" fill-opacity="1" d="M 523.417969 187.539062 L 2761.410156 263.628906 C 2804.21875 265.089844 2837.109375 298.148438 2838.730469 340.960938 L 2928.898438 2723.621094 C 2930.519531 2766.433594 2894.089844 2806.179688 2851.570312 2800.953125 L 595.40625 2523.519531 C 552.890625 2518.300781 519.492188 2489.011719 518.082031 2446.191406 L 446.089844 264.871094 C 444.675781 222.058594 480.601562 186.089844 523.417969 187.539062 Z M 523.417969 187.539062 "/>
<path fill-rule="nonzero" fill="rgb(51.756287%, 66.209412%, 23.143005%)" fill-opacity="1" d="M 2767.171875 2790.757812 L 2785.949219 2793.066406 C 2673.910156 1643.660156 2250.808594 1940.03125 2048.578125 1864.308594 C 2048.578125 1864.308594 2604.359375 2042.550781 2767.171875 2790.757812 Z M 2767.171875 2790.757812 "/>
<path fill-rule="evenodd" fill="rgb(100%, 100%, 100%)" fill-opacity="1" d="M 1196.871094 292.109375 C 1141.609375 292.28125 1087.230469 324.378906 1064.539062 407.25 C 1065.109375 422.261719 1065.570312 437.300781 1066.058594 452.320312 C 1065.800781 452.308594 1065.539062 452.308594 1065.28125 452.308594 C 1056.171875 452.320312 1047.75 459.621094 1043.210938 471.46875 C 1038.5 472.410156 1035.359375 476.878906 1036.070312 481.640625 C 1036.460938 484.070312 1037.839844 486.25 1039.878906 487.640625 C 1039.839844 488.589844 1039.808594 489.550781 1039.808594 490.511719 C 1039.808594 511.609375 1051.210938 528.710938 1065.28125 528.710938 C 1066.71875 528.710938 1068.160156 528.511719 1069.589844 528.140625 C 1070.941406 547.589844 1072.789062 566.890625 1075.460938 585.910156 C 1075.589844 586.851562 1075.710938 587.78125 1075.839844 588.710938 C 1076.171875 590.980469 1076.519531 593.238281 1076.871094 595.5 C 1077.21875 597.75 1077.589844 600.011719 1077.960938 602.261719 C 1078.339844 604.5 1078.730469 606.75 1079.140625 608.988281 C 1079.539062 611.230469 1079.960938 613.460938 1080.390625 615.691406 C 1080.609375 616.808594 1080.828125 617.929688 1081.050781 619.03125 C 1081.28125 620.148438 1081.5 621.261719 1081.730469 622.371094 C 1081.960938 623.480469 1082.191406 624.589844 1082.429688 625.699219 C 1082.671875 626.808594 1082.910156 627.921875 1083.160156 629.019531 L 1144.398438 606.820312 L 1152.5 603.878906 L 1158.460938 626.53125 L 1148.878906 641.230469 C 1060.609375 664.890625 981.597656 725.53125 905.613281 798.308594 C 898.796875 878.628906 908.847656 885.871094 913.335938 917.199219 C 860.609375 1169.660156 878.183594 1234.671875 860.835938 1392.78125 L 876.277344 1454.539062 L 876.277344 1536.378906 L 902.527344 1568.800781 L 910.246094 1638.289062 C 916.460938 1638.640625 922.382812 1638.78125 928.082031 1638.769531 L 937.15625 1685.839844 C 945.054688 1685.578125 952.933594 1685.21875 960.753906 1684.640625 L 995.042969 1718.75 L 998.53125 1736.691406 L 987.382812 1818.878906 L 1038.929688 1857.890625 L 1136.441406 2222.859375 L 1136.441406 2222.871094 L 1065.390625 2576.691406 L 1043.191406 2765.40625 C 1022.539062 2769.222656 991.929688 2771.339844 969.726562 2757.460938 C 933.128906 2734.589844 891.953125 2694.550781 867.9375 2732.300781 C 852.832031 2756.03125 879.746094 2801.589844 901.816406 2832.15625 C 678.902344 2832.542969 535.882812 2859.582031 500.011719 2908.117188 C 464.140625 2956.65625 537.921875 3023.304688 707.300781 3095.355469 C 890.359375 3173.183594 1170.46875 3251.175781 1486 3312.179688 C 1801.539062 3373.183594 2126.660156 3412.199219 2389.828125 3420.644531 C 2653 3429.085938 2832.679688 3406.269531 2889.328125 3357.207031 C 2945.980469 3308.148438 2874.96875 3236.863281 2691.910156 3159.035156 C 2648.988281 3140.828125 2600.449219 3122.476562 2546.898438 3104.222656 C 2544.351562 3097.164062 2541.128906 3090.390625 2537.328125 3084.113281 C 2624.039062 3039.398438 2661.398438 2935.585938 2622.371094 2841.925781 L 2615.390625 2825.191406 C 2612.75 2811.996094 2608.820312 2798.808594 2603.441406 2785.777344 L 2328.140625 2118.460938 C 2283.230469 2009.589844 2157.929688 1954.261719 2047.21875 1994.421875 L 2029.179688 2000.960938 C 2027.378906 2001.511719 2025.609375 2002.089844 2023.859375 2002.738281 L 2019.660156 2004.289062 L 1835.808594 1631.800781 C 1835.429688 1631.019531 1834.980469 1630.300781 1834.46875 1629.640625 L 1854.609375 1618.859375 C 1867.421875 1612 1871.539062 1596.558594 1863.851562 1584.230469 C 1856.148438 1571.898438 1839.640625 1567.5 1826.820312 1574.359375 L 1803.359375 1586.910156 C 1789.339844 1562.140625 1770.039062 1535.410156 1738.820312 1504.300781 C 1748.269531 1498.460938 1757.039062 1491.351562 1765.070312 1482.839844 L 1743.230469 1429.679688 C 1746.640625 1426.691406 1750 1423.671875 1753.308594 1420.570312 L 1739.421875 1343.359375 L 1747.140625 1281.601562 L 1694.640625 1176.601562 L 1680.738281 1036.089844 C 1655.289062 961.578125 1644.460938 910.640625 1611.261719 840 L 1589.640625 750.441406 C 1516.519531 698.410156 1443.390625 634.460938 1370.269531 633.269531 L 1333.070312 570.390625 C 1319.519531 572.980469 1305.960938 575.429688 1292.410156 578.070312 L 1282.921875 530.828125 C 1306.960938 513.199219 1323.699219 494.78125 1334.429688 476.351562 C 1338.398438 480.210938 1344.328125 481.25 1349.390625 478.980469 C 1353.558594 477.089844 1356.480469 473.210938 1357.171875 468.691406 C 1414.558594 504.921875 1414.828125 552.210938 1417.519531 599.03125 L 1435.570312 542.621094 L 1438.578125 593.019531 C 1475.121094 555.960938 1480.089844 522.210938 1435.570312 480.199219 C 1450.421875 453.101562 1443.808594 381.589844 1411.691406 361.410156 C 1433.691406 357.769531 1456.441406 357.601562 1472.109375 366.75 C 1469.980469 361.359375 1467.078125 356.011719 1463.261719 350.761719 C 1428.109375 302.429688 1369.46875 355.121094 1350.199219 374.828125 C 1349.128906 370.25 1345.75 366.570312 1341.289062 365.089844 C 1338.421875 364.140625 1335.308594 364.179688 1332.460938 365.210938 C 1305.460938 322.140625 1250.75 291.941406 1196.871094 292.109375 Z M 1472.109375 366.75 C 1493.71875 421.390625 1435.570312 480.199219 1435.570312 480.199219 C 1435.570312 480.199219 1515.511719 410.980469 1480.96875 373.789062 C 1478.378906 370.988281 1475.398438 368.671875 1472.109375 366.75 Z M 1568.019531 1425.199219 L 1581.921875 1480.789062 C 1590.890625 1481.878906 1599.441406 1482.449219 1607.628906 1482.601562 L 1621.761719 1523.140625 C 1638.269531 1525.25 1654.03125 1525.929688 1668.921875 1525.011719 L 1673.058594 1594.261719 L 1692.660156 1646.148438 L 1626.25 1681.691406 C 1613.429688 1688.550781 1609.308594 1704 1617 1716.328125 C 1623.609375 1726.898438 1636.679688 1731.640625 1648.359375 1728.449219 L 1820.738281 2077.738281 L 1795.328125 2087.121094 C 1690.820312 2125.710938 1627.269531 2349.691406 1670.121094 2452.53125 L 1870.871094 2934.285156 C 1772.53125 2915.925781 1672.828125 2899.59375 1574.019531 2885.65625 L 1445.691406 2252.121094 L 1445.691406 2252.109375 L 1427.578125 2158.78125 L 1401.121094 2058.480469 C 1401.121094 2058.480469 1418.75 2012.25 1440.558594 1950.351562 L 1440.558594 1950.339844 C 1444.199219 1940.03125 1447.949219 1929.28125 1451.761719 1918.230469 C 1455.558594 1907.179688 1459.429688 1895.839844 1463.28125 1884.351562 C 1467.128906 1872.859375 1470.980469 1861.210938 1474.75 1849.558594 C 1482.300781 1826.25 1489.558594 1802.890625 1496.050781 1780.621094 C 1499.289062 1769.488281 1502.339844 1758.621094 1505.140625 1748.179688 C 1506.53125 1742.960938 1507.859375 1737.839844 1509.121094 1732.839844 C 1510.378906 1727.839844 1511.570312 1722.960938 1512.679688 1718.21875 C 1514.890625 1708.738281 1516.789062 1699.820312 1518.300781 1691.589844 C 1519.058594 1687.46875 1519.71875 1683.53125 1520.28125 1679.789062 L 1520.28125 1679.78125 C 1521.390625 1672.289062 1522.101562 1665.558594 1522.328125 1659.738281 C 1522.441406 1656.898438 1522.429688 1654.289062 1522.300781 1651.898438 C 1522.300781 1651.839844 1522.308594 1651.769531 1522.300781 1651.710938 C 1522.039062 1646.839844 1521.75 1642.089844 1521.429688 1637.480469 C 1521.109375 1632.871094 1520.761719 1628.390625 1520.378906 1624.039062 C 1518.691406 1604.210938 1516.53125 1587.578125 1514.390625 1573.679688 C 1525.691406 1570.648438 1537.148438 1567.339844 1548.808594 1563.691406 L 1540.160156 1485.859375 C 1544.300781 1483.25 1548.441406 1480.539062 1552.570312 1477.699219 L 1552.570312 1477.691406 L 1557.210938 1439.101562 Z M 1815.328125 1674.828125 L 1984.320312 2017.230469 L 1874.371094 2057.109375 C 1869.488281 2058.871094 1864.769531 2060.851562 1860.128906 2062.921875 L 1685.609375 1709.308594 L 1716.78125 1692.621094 C 1752.601562 1695.609375 1788.929688 1700.128906 1815.328125 1674.828125 Z M 1242.308594 2501.46875 L 1366.390625 2859.71875 C 1283.910156 2850.882812 1204.199219 2844.101562 1128.609375 2839.484375 C 1129.929688 2834.160156 1131.179688 2828.878906 1132.371094 2823.691406 C 1132.71875 2823.675781 1133.070312 2823.664062 1133.410156 2823.636719 C 1134.121094 2823.574219 1134.820312 2823.488281 1135.511719 2823.375 C 1136.210938 2823.261719 1136.890625 2823.121094 1137.558594 2822.953125 C 1138.230469 2822.785156 1138.898438 2822.585938 1139.550781 2822.355469 C 1140.199219 2822.128906 1140.839844 2821.871094 1141.46875 2821.585938 C 1142.101562 2821.296875 1142.71875 2820.980469 1143.328125 2820.628906 C 1143.941406 2820.28125 1144.53125 2819.894531 1145.121094 2819.480469 C 1145.699219 2819.066406 1146.269531 2818.621094 1146.820312 2818.140625 C 1147.378906 2817.660156 1147.921875 2817.144531 1148.449219 2816.59375 C 1148.980469 2816.046875 1149.5 2815.460938 1150 2814.839844 C 1150.5 2814.21875 1150.988281 2813.5625 1151.460938 2812.871094 C 1151.921875 2812.203125 1152.359375 2811.503906 1152.78125 2810.765625 C 1152.820312 2810.703125 1152.859375 2810.640625 1152.890625 2810.574219 C 1153.308594 2809.839844 1153.71875 2809.070312 1154.109375 2808.261719 C 1154.5 2807.453125 1154.878906 2806.605469 1155.230469 2805.726562 C 1155.269531 2805.644531 1155.308594 2805.554688 1155.339844 2805.46875 C 1155.691406 2804.585938 1156.039062 2803.675781 1156.359375 2802.71875 C 1156.679688 2801.761719 1156.988281 2800.761719 1157.28125 2799.730469 C 1157.300781 2799.675781 1157.320312 2799.632812 1157.339844 2799.578125 C 1162.210938 2782.164062 1169.960938 2754.828125 1178.839844 2723.609375 C 1187.71875 2692.398438 1197.730469 2657.320312 1207.140625 2624.410156 L 1207.140625 2624.398438 C 1225.941406 2558.578125 1242.308594 2501.46875 1242.308594 2501.46875 Z M 1242.308594 2501.46875 "/>
<path fill-rule="evenodd" fill="rgb(65.429688%, 78.90625%, 38.818359%)" fill-opacity="1" d="M 939.425781 2832.148438 C 587 2834.804688 363.261719 2879.675781 309.898438 2958.398438 C 256.53125 3037.121094 377.179688 3144.324219 649.359375 3260.042969 C 897.71875 3365.605469 1257.460938 3471.980469 1672.230469 3562.5 L 3077.449219 3113.179688 C 2446.320312 2958.960938 1710.039062 2853.160156 1140.359375 2834.824219 C 1069.949219 2832.566406 1002.828125 2831.671875 939.425781 2832.148438 Z M 939.425781 2832.148438 "/>
<path fill-rule="evenodd" fill="rgb(9.008789%, 9.008789%, 9.008789%)" fill-opacity="1" d="M 2575.539062 3121.792969 C 2583.300781 3163.277344 2565.351562 3196.90625 2535.449219 3196.90625 C 2505.558594 3196.90625 2475.03125 3163.277344 2467.269531 3121.792969 C 2459.519531 3080.308594 2477.46875 3046.679688 2507.359375 3046.679688 C 2537.261719 3046.679688 2567.789062 3080.308594 2575.539062 3121.792969 Z M 2575.539062 3121.792969 "/>
<path fill-rule="nonzero" fill="rgb(65.429688%, 78.90625%, 38.818359%)" fill-opacity="1" d="M 2609.660156 2346.25 C 2596.378906 2328.5 2582.589844 2312.140625 2568.160156 2297.910156 C 2418.109375 2149.949219 2292.628906 2381.839844 2292.628906 2381.839844 C 2295.460938 2379.921875 2458.769531 2302.941406 2609.660156 2346.25 Z M 2609.660156 2346.25 "/>
<path fill-rule="evenodd" fill="rgb(9.008789%, 9.008789%, 9.008789%)" fill-opacity="1" d="M 2047.691406 2002.730469 L 1819.171875 2087.121094 C 1714.648438 2125.710938 1651.089844 2349.691406 1693.949219 2452.53125 L 1956.609375 3082.855469 C 1999.46875 3185.695312 2117.679688 3236.164062 2223.238281 3200.527344 L 2534.28125 3095.515625 C 2639.839844 3059.878906 2689.050781 2944.761719 2646.199219 2841.921875 L 2383.539062 2211.601562 C 2340.679688 2108.761719 2152.210938 1964.140625 2047.691406 2002.730469 Z M 2047.691406 2002.730469 "/>
<path fill-rule="nonzero" fill="rgb(11.767578%, 11.767578%, 11.767578%)" fill-opacity="1" d="M 1515.558594 3010.710938 L 1464.570312 3015.710938 C 1464.570312 3015.710938 1421.371094 3089.644531 1387.519531 3099.792969 C 1354.949219 3109.558594 1325.761719 3060.113281 1268.101562 3135.238281 C 1246.78125 3163.011719 1247.339844 3194.308594 1247.339844 3194.308594 C 1247.339844 3194.308594 1442.109375 3215.0625 1490.011719 3215.0625 C 1537.898438 3215.0625 1600.171875 3192.710938 1600.171875 3192.710938 C 1598.269531 3195.558594 1620.109375 3073.328125 1593.78125 2993.148438 C 1585.441406 2967.757812 1515.558594 3010.710938 1515.558594 3010.710938 Z M 1515.558594 3010.710938 "/>
<path fill-rule="nonzero" fill="rgb(11.767578%, 11.767578%, 11.767578%)" fill-opacity="1" d="M 1089.628906 2759.746094 C 1089.628906 2759.746094 1030.160156 2780.335938 993.558594 2757.460938 C 956.957031 2734.589844 915.785156 2694.550781 891.765625 2732.300781 C 867.746094 2770.042969 950.019531 2863.027344 950.019531 2863.027344 C 950.019531 2863.027344 1080.480469 2956.472656 1112.511719 2934.742188 C 1144.53125 2913.007812 1169.691406 2755.171875 1169.691406 2755.171875 Z M 1089.628906 2759.746094 "/>
<path fill-rule="nonzero" fill="rgb(100%, 65.039062%, 51.756287%)" fill-opacity="1" d="M 1464.070312 2967.113281 C 1464.070312 2967.113281 1493.589844 3061.585938 1519.570312 3065.128906 C 1545.558594 3068.671875 1572.710938 3022.617188 1572.710938 3022.617188 L 1543.191406 2918.699219 Z M 1464.070312 2967.113281 "/>
<path fill-rule="nonzero" fill="rgb(85.546875%, 85.546875%, 85.546875%)" fill-opacity="1" d="M 1002.859375 1636.390625 L 1022.359375 1736.691406 L 1011.21875 1818.878906 L 1062.761719 1857.878906 L 1160.269531 2222.859375 L 1089.21875 2576.691406 L 1066.929688 2766.148438 C 1066.929688 2766.148438 1161.660156 2869.234375 1181.160156 2799.582031 C 1200.671875 2729.929688 1266.140625 2501.46875 1266.140625 2501.46875 L 1438.878906 3000.179688 C 1499.230469 2998.726562 1564.070312 3019.703125 1601.859375 2905.453125 L 1469.519531 2252.109375 L 1451.410156 2158.78125 L 1424.941406 2058.480469 C 1424.941406 2058.480469 1550.320312 1729.71875 1546.140625 1651.710938 C 1541.960938 1573.699219 1529.429688 1529.121094 1529.429688 1529.121094 L 1061.359375 1522.160156 L 990.316406 1601.558594 Z M 1002.859375 1636.390625 "/>
<path fill-rule="evenodd" fill="rgb(11.767578%, 11.767578%, 11.767578%)" fill-opacity="1" d="M 1831.890625 1631.28125 L 1842.558594 1626.011719 C 1848.898438 1622.878906 1856.519531 1625.460938 1859.640625 1631.800781 L 2056 2029.648438 C 2059.121094 2035.980469 2056.539062 2043.601562 2050.210938 2046.71875 L 2039.53125 2051.988281 C 2033.191406 2055.121094 2025.578125 2052.539062 2022.449219 2046.199219 L 1826.101562 1648.359375 C 1822.96875 1642.019531 1825.558594 1634.410156 1831.890625 1631.28125 Z M 1831.890625 1631.28125 "/>
<path fill-rule="evenodd" fill="rgb(11.767578%, 11.767578%, 11.767578%)" fill-opacity="1" d="M 1650.078125 1681.691406 L 1850.660156 1574.359375 C 1863.46875 1567.5 1879.980469 1571.898438 1887.679688 1584.230469 C 1895.371094 1596.558594 1891.25 1612.011719 1878.441406 1618.859375 L 1677.859375 1726.210938 C 1665.039062 1733.058594 1648.53125 1728.660156 1640.839844 1716.328125 C 1633.140625 1704 1637.261719 1688.558594 1650.078125 1681.691406 Z M 1650.078125 1681.691406 "/>
<path fill-rule="nonzero" fill="rgb(100%, 85.9375%, 75.78125%)" fill-opacity="1" d="M 1728.859375 1473.050781 L 1691.570312 1505.019531 L 1696.890625 1594.261719 L 1719.539062 1654.199219 L 1724.859375 1691.5 C 1774.269531 1694.070312 1827.660156 1708.640625 1856.730469 1650.210938 C 1834.960938 1598.839844 1816.191406 1548.570312 1728.859375 1473.050781 Z M 1728.859375 1473.050781 "/>
<path fill-rule="nonzero" fill="rgb(78.90625%, 62.693787%, 20.384216%)" fill-opacity="1" d="M 1619.839844 1449.25 L 1645.589844 1523.140625 C 1704.550781 1530.679688 1753.808594 1520.050781 1788.898438 1482.828125 L 1755.308594 1401.101562 Z M 1619.839844 1449.25 "/>
<path fill-rule="nonzero" fill="rgb(100%, 85.9375%, 75.78125%)" fill-opacity="1" d="M 966.101562 1666.25 L 1086.371094 1785.921875 C 1088.769531 1791.5 1115.789062 1659.28125 1106.070312 1629.261719 C 1100.050781 1610.660156 966.101562 1666.25 966.101562 1666.25 Z M 966.101562 1666.25 "/>
<path fill-rule="nonzero" fill="rgb(78.90625%, 62.693787%, 20.384216%)" fill-opacity="1" d="M 946.382812 1610.101562 L 960.984375 1685.839844 C 1013.628906 1684.128906 1065.179688 1677.980469 1106.070312 1629.261719 L 1089.640625 1532.539062 Z M 946.382812 1610.101562 "/>
<path fill-rule="nonzero" fill="rgb(63.867188%, 50.976562%, 16.479492%)" fill-opacity="1" d="M 1063.941406 1555.300781 C 1213.261719 1593.269531 1363.871094 1629 1572.640625 1563.691406 L 1557.039062 1423.320312 L 1133.53125 1438.921875 L 1073.539062 1495.308594 Z M 1063.941406 1555.300781 "/>
<path fill-rule="nonzero" fill="rgb(100%, 65.039062%, 51.756287%)" fill-opacity="1" d="M 1174.121094 595.460938 L 1190.300781 656.949219 L 1327.859375 635.910156 L 1306.75 530.828125 L 1279.308594 493.5 L 1161.980469 532.339844 Z M 1174.121094 595.460938 "/>
<path fill-rule="nonzero" fill="rgb(11.767578%, 11.767578%, 11.767578%)" fill-opacity="1" d="M 1129 473.269531 L 1088.371094 407.25 C 1157.53125 154.691406 1520.960938 373.71875 1306.75 530.828125 Z M 1129 473.269531 "/>
<path fill-rule="evenodd" fill="rgb(11.767578%, 11.767578%, 11.767578%)" fill-opacity="1" d="M 1114.570312 490.511719 C 1114.570312 511.609375 1103.171875 528.710938 1089.109375 528.710938 C 1075.039062 528.710938 1063.640625 511.609375 1063.640625 490.511719 C 1063.640625 469.410156 1075.039062 452.308594 1089.109375 452.308594 C 1103.171875 452.308594 1114.570312 469.410156 1114.570312 490.511719 Z M 1114.570312 490.511719 "/>
<path fill-rule="nonzero" fill="rgb(100%, 85.9375%, 75.78125%)" fill-opacity="1" d="M 1088.371094 407.25 C 1091.199219 482.300781 1091.269531 558.269531 1106.988281 629.019531 L 1242.421875 579.929688 L 1259.351562 532.519531 C 1279.539062 524.800781 1352.808594 430.988281 1267.808594 449.570312 L 1237.339844 480.039062 C 1237.339844 480.039062 1132.378906 386.941406 1088.371094 407.25 Z M 1088.371094 407.25 "/>
<path fill-rule="nonzero" fill="rgb(11.767578%, 11.767578%, 11.767578%)" fill-opacity="1" d="M 1367.640625 381.671875 C 1455.660156 298.890625 1481.679688 439.539062 1459.398438 480.199219 C 1503.910156 522.210938 1498.949219 555.960938 1462.410156 593.019531 L 1459.398438 542.621094 L 1441.351562 599.03125 C 1438.570312 550.679688 1438.378906 501.820312 1375.171875 465.160156 L 1352.601562 428.308594 Z M 1367.640625 381.671875 "/>
<path fill-rule="nonzero" fill="rgb(11.767578%, 11.767578%, 11.767578%)" fill-opacity="1" d="M 1367.640625 381.671875 C 1367.640625 381.671875 1444.578125 292.308594 1487.089844 350.761719 C 1529.601562 409.210938 1459.398438 480.199219 1459.398438 480.199219 C 1459.398438 480.199219 1539.339844 410.980469 1504.800781 373.789062 C 1470.261719 336.589844 1367.640625 381.671875 1367.640625 381.671875 Z M 1367.640625 381.671875 "/>
<path fill-rule="nonzero" fill="rgb(84.375%, 72.068787%, 39.598083%)" fill-opacity="1" d="M 1242.890625 619.191406 L 1172.699219 641.230469 C 1084.441406 664.890625 1005.429688 725.53125 929.445312 798.308594 C 922.628906 878.628906 932.679688 885.859375 937.164062 917.199219 C 884.441406 1169.660156 902.011719 1234.660156 884.667969 1392.78125 L 900.109375 1454.539062 L 900.109375 1536.371094 L 926.355469 1568.800781 L 934.078125 1638.289062 C 1041.429688 1644.339844 1069.679688 1594.550781 1110.101562 1553.359375 L 1114.730469 1496.230469 C 1269.820312 1531.601562 1425.308594 1581.441406 1576.410156 1477.699219 L 1581.050781 1439.101562 L 1591.859375 1425.199219 L 1605.75 1480.789062 C 1687.941406 1490.78125 1735.660156 1459.421875 1777.140625 1420.570312 L 1763.25 1343.371094 L 1770.96875 1281.601562 L 1718.46875 1176.609375 L 1704.570312 1036.089844 C 1679.121094 961.578125 1668.289062 910.640625 1635.089844 840 L 1613.46875 750.441406 C 1540.351562 698.410156 1467.230469 634.460938 1394.101562 633.269531 C 1394.101562 633.269531 1295.488281 581.429688 1242.890625 619.191406 Z M 1242.890625 619.191406 "/>
<path fill-rule="nonzero" fill="rgb(100%, 65.039062%, 51.756287%)" fill-opacity="1" d="M 1089.628906 2759.746094 L 1073.621094 2812.359375 C 1093.398438 2890.847656 1114.851562 2870.199219 1146.820312 2796.347656 Z M 1089.628906 2759.746094 "/>
<path fill-rule="evenodd" fill="rgb(11.767578%, 11.767578%, 11.767578%)" fill-opacity="1" d="M 1674.75 1704.839844 L 1689.429688 1697.601562 C 1695.769531 1694.46875 1703.390625 1697.058594 1706.511719 1703.390625 L 1884.921875 2064.871094 C 1888.039062 2071.199219 1885.460938 2078.820312 1879.128906 2081.941406 L 1864.441406 2089.191406 C 1858.109375 2092.320312 1850.5 2089.730469 1847.371094 2083.398438 L 1668.960938 1721.921875 C 1665.839844 1715.589844 1668.421875 1707.96875 1674.75 1704.839844 Z M 1674.75 1704.839844 "/>
<path fill-rule="evenodd" fill="rgb(15.281677%, 15.281677%, 15.281677%)" fill-opacity="1" d="M 2071.050781 1994.421875 L 1898.199219 2057.109375 C 1787.480469 2097.261719 1734.511719 2217.238281 1779.421875 2326.121094 L 2054.71875 2993.433594 C 2099.628906 3102.308594 2224.929688 3157.628906 2335.648438 3117.472656 L 2508.488281 3054.785156 C 2619.210938 3014.628906 2672.191406 2894.648438 2627.269531 2785.773438 L 2351.980469 2118.460938 C 2307.058594 2009.578125 2181.769531 1954.261719 2071.050781 1994.421875 Z M 2071.050781 1994.421875 "/>
<path fill-rule="evenodd" fill="rgb(9.008789%, 9.008789%, 9.008789%)" fill-opacity="1" d="M 2234.160156 3222.980469 C 2241.921875 3264.460938 2223.96875 3298.09375 2194.070312 3298.09375 C 2164.179688 3298.09375 2133.648438 3264.460938 2125.890625 3222.980469 C 2118.140625 3181.496094 2136.089844 3147.863281 2165.980469 3147.863281 C 2195.878906 3147.863281 2226.410156 3181.496094 2234.160156 3222.980469 Z M 2234.160156 3222.980469 "/>
<path fill-rule="nonzero" fill="rgb(78.90625%, 62.693787%, 20.384216%)" fill-opacity="1" d="M 1110.101562 1553.359375 L 1114.738281 1496.230469 C 1124.429688 1498.441406 1134.121094 1500.710938 1143.808594 1502.988281 C 1153.511719 1505.269531 1163.210938 1507.570312 1172.898438 1509.839844 C 1182.589844 1512.121094 1192.289062 1514.359375 1201.980469 1516.539062 C 1206.820312 1517.628906 1211.671875 1518.710938 1216.519531 1519.761719 C 1221.359375 1520.808594 1226.199219 1521.839844 1231.050781 1522.839844 C 1235.890625 1523.851562 1240.730469 1524.820312 1245.570312 1525.769531 C 1250.410156 1526.710938 1255.261719 1527.621094 1260.101562 1528.5 C 1264.929688 1529.371094 1269.78125 1530.210938 1274.609375 1531.011719 C 1279.449219 1531.808594 1284.289062 1532.558594 1289.121094 1533.261719 C 1293.960938 1533.96875 1298.789062 1534.621094 1303.621094 1535.230469 C 1308.449219 1535.839844 1313.28125 1536.390625 1318.109375 1536.890625 C 1322.941406 1537.378906 1327.769531 1537.820312 1332.601562 1538.191406 C 1337.421875 1538.570312 1342.25 1538.890625 1347.070312 1539.128906 C 1351.890625 1539.378906 1356.710938 1539.558594 1361.519531 1539.660156 C 1366.339844 1539.761719 1371.160156 1539.789062 1375.96875 1539.738281 C 1378.378906 1539.710938 1380.78125 1539.679688 1383.191406 1539.609375 C 1385.589844 1539.550781 1388 1539.460938 1390.398438 1539.359375 C 1392.808594 1539.25 1395.210938 1539.121094 1397.621094 1538.980469 C 1400.019531 1538.828125 1402.421875 1538.660156 1404.820312 1538.46875 C 1407.21875 1538.28125 1409.628906 1538.070312 1412.03125 1537.839844 C 1414.429688 1537.601562 1416.828125 1537.339844 1419.230469 1537.058594 C 1421.628906 1536.78125 1424.03125 1536.46875 1426.421875 1536.140625 C 1428.820312 1535.820312 1431.21875 1535.460938 1433.621094 1535.089844 C 1436.011719 1534.710938 1438.410156 1534.308594 1440.800781 1533.878906 C 1443.191406 1533.449219 1445.589844 1533 1447.980469 1532.519531 C 1450.378906 1532.039062 1452.769531 1531.539062 1455.160156 1531.011719 C 1457.558594 1530.480469 1459.949219 1529.910156 1462.339844 1529.328125 C 1464.730469 1528.75 1467.121094 1528.128906 1469.511719 1527.488281 C 1471.890625 1526.851562 1474.28125 1526.179688 1476.671875 1525.480469 C 1479.058594 1524.789062 1481.449219 1524.070312 1483.828125 1523.308594 C 1486.21875 1522.558594 1488.609375 1521.769531 1490.988281 1520.960938 C 1493.371094 1520.148438 1495.75 1519.308594 1498.140625 1518.429688 C 1500.519531 1517.558594 1502.898438 1516.648438 1505.28125 1515.710938 C 1507.660156 1514.78125 1510.039062 1513.808594 1512.421875 1512.820312 C 1514.800781 1511.820312 1517.179688 1510.789062 1519.558594 1509.730469 C 1521.929688 1508.671875 1524.308594 1507.570312 1526.679688 1506.441406 C 1529.058594 1505.320312 1531.429688 1504.160156 1533.808594 1502.960938 C 1536.179688 1501.769531 1538.550781 1500.539062 1540.921875 1499.28125 C 1543.289062 1498.019531 1545.660156 1496.71875 1548.03125 1495.390625 C 1550.398438 1494.058594 1552.769531 1492.691406 1555.140625 1491.289062 C 1557.5 1489.890625 1559.871094 1488.449219 1562.230469 1486.980469 C 1564.601562 1485.5 1566.96875 1484 1569.328125 1482.449219 C 1571.691406 1480.898438 1574.058594 1479.320312 1576.410156 1477.691406 L 1581.050781 1439.101562 C 1581.050781 1439.101562 1417.671875 1502.921875 1336.789062 1499.621094 C 1255.921875 1496.320312 1133.53125 1438.921875 1133.53125 1438.921875 L 1288.929688 1463.308594 C 1288.929688 1463.308594 1244.359375 1451.75 1199.800781 1415.441406 C 1155.230469 1379.121094 1128.820312 1324.660156 1128.820312 1324.660156 L 1198.148438 1194.261719 L 1132.128906 1265.238281 C 1132.128906 1265.238281 1128.828125 1258.640625 1125.53125 1199.210938 C 1122.230469 1139.800781 1079.308594 946.679688 1079.308594 946.679688 L 1105.71875 1374.171875 L 1095.820312 1412.140625 Z M 1110.101562 1553.359375 "/>
<path fill-rule="nonzero" fill="rgb(78.90625%, 62.693787%, 20.384216%)" fill-opacity="1" d="M 1591.859375 1425.199219 L 1621.269531 1349.308594 L 1581.011719 1262.828125 L 1566.101562 919.890625 L 1528.820312 767.808594 C 1528.820312 767.808594 1589.960938 884.109375 1594.429688 921.378906 C 1598.898438 958.660156 1589.960938 1249.410156 1589.960938 1249.410156 C 1589.960938 1249.410156 1661.519531 1306.070312 1643.628906 1355.269531 C 1625.738281 1404.480469 1591.859375 1425.199219 1591.859375 1425.199219 Z M 1591.859375 1425.199219 "/>
<path fill-rule="nonzero" fill="rgb(78.90625%, 62.693787%, 20.384216%)" fill-opacity="1" d="M 1763.25 1343.371094 L 1770.96875 1281.601562 C 1732.800781 1304.851562 1664.511719 1309.050781 1664.511719 1309.050781 Z M 1763.25 1343.371094 "/>
<path fill-rule="nonzero" fill="rgb(88.671875%, 79.6875%, 55.664062%)" fill-opacity="1" d="M 1718.46875 1176.609375 L 1630.210938 1271.769531 C 1630.210938 1271.769531 1650.171875 1167.921875 1718.46875 1176.609375 Z M 1718.46875 1176.609375 "/>
<path fill-rule="nonzero" fill="rgb(78.90625%, 62.693787%, 20.384216%)" fill-opacity="1" d="M 1224.230469 985.320312 C 1224.230469 985.320312 1242.289062 1069.589844 1332.578125 1037.988281 C 1422.871094 1006.390625 1477.039062 931.140625 1477.039062 931.140625 C 1477.039062 931.140625 1397.289062 1137.308594 1322.039062 1137.308594 C 1246.800781 1137.308594 1224.230469 985.320312 1224.230469 985.320312 Z M 1224.230469 985.320312 "/>
<path fill-rule="nonzero" fill="rgb(78.90625%, 62.693787%, 20.384216%)" fill-opacity="1" d="M 1234.761719 1259.199219 C 1234.761719 1259.199219 1314.519531 1295.320312 1379.230469 1290.800781 C 1443.929688 1286.289062 1501.121094 1182.449219 1501.121094 1182.449219 C 1501.121094 1182.449219 1257.339844 1394.640625 1234.761719 1259.199219 Z M 1234.761719 1259.199219 "/>
<path fill-rule="nonzero" fill="rgb(78.90625%, 62.693787%, 20.384216%)" fill-opacity="1" d="M 944.328125 1438.28125 L 1031.609375 1351 C 1031.609375 1351 1058.691406 1429.25 944.328125 1438.28125 Z M 944.328125 1438.28125 "/>
<path fill-rule="nonzero" fill="rgb(78.90625%, 62.693787%, 20.384216%)" fill-opacity="1" d="M 1073.75 899.539062 C 1073.75 899.539062 1061.710938 806.25 1057.191406 792.699219 C 1052.679688 779.160156 1027.089844 740.03125 1027.089844 740.03125 C 1027.089844 740.03125 1093.308594 729.5 1094.808594 779.160156 C 1096.320312 828.820312 1073.75 899.539062 1073.75 899.539062 Z M 1073.75 899.539062 "/>
<path fill-rule="nonzero" fill="rgb(88.671875%, 79.6875%, 55.664062%)" fill-opacity="1" d="M 1133.941406 872.460938 C 1133.941406 872.460938 1188.109375 691.871094 1209.179688 684.351562 C 1230.25 676.828125 1275.390625 669.308594 1275.390625 669.308594 C 1275.390625 669.308594 1130.929688 843.871094 1133.941406 872.460938 Z M 1133.941406 872.460938 "/>
<path fill-rule="nonzero" fill="rgb(78.90625%, 62.693787%, 20.384216%)" fill-opacity="1" d="M 1498.109375 723.480469 L 1407.820312 661.78125 C 1407.820312 661.78125 1467.390625 679.148438 1498.109375 723.480469 Z M 1498.109375 723.480469 "/>
<path fill-rule="nonzero" fill="rgb(72.459412%, 72.459412%, 72.459412%)" fill-opacity="1" d="M 1349.269531 1837.871094 C 1324.011719 1844.75 1299.75 1848.679688 1282.871094 1830.441406 C 1311.761719 1864.011719 1332.410156 1859.660156 1349.269531 1837.871094 Z M 1349.269531 1837.871094 "/>
<path fill-rule="nonzero" fill="rgb(72.459412%, 72.459412%, 72.459412%)" fill-opacity="1" d="M 1580.261719 2952.890625 C 1580.929688 2951.824219 1581.621094 2950.816406 1582.289062 2949.703125 C 1583.710938 2947.335938 1585.109375 2944.859375 1586.488281 2942.265625 C 1587.859375 2939.675781 1589.210938 2936.972656 1590.550781 2934.148438 C 1591.878906 2931.328125 1593.191406 2928.390625 1594.46875 2925.328125 C 1595.75 2922.269531 1597.011719 2919.082031 1598.238281 2915.773438 C 1599.46875 2912.460938 1600.679688 2909.023438 1601.859375 2905.453125 L 1469.53125 2252.121094 L 1451.410156 2158.78125 L 1424.949219 2058.480469 C 1424.949219 2058.480469 1426.910156 2053.351562 1430.320312 2044.199219 C 1433.75 2035.058594 1438.628906 2021.910156 1444.46875 2005.890625 C 1450.308594 1989.871094 1457.128906 1970.980469 1464.390625 1950.351562 C 1468.03125 1940.03125 1471.789062 1929.28125 1475.589844 1918.230469 C 1479.398438 1907.191406 1483.261719 1895.839844 1487.109375 1884.351562 C 1490.960938 1872.859375 1494.808594 1861.210938 1498.589844 1849.558594 C 1502.359375 1837.898438 1506.058594 1826.230469 1509.628906 1814.699219 C 1513.199219 1803.160156 1516.640625 1791.761719 1519.878906 1780.621094 C 1523.128906 1769.488281 1526.179688 1758.628906 1528.96875 1748.179688 C 1530.371094 1742.960938 1531.691406 1737.839844 1532.949219 1732.839844 C 1534.210938 1727.839844 1535.398438 1722.960938 1536.511719 1718.21875 C 1537.621094 1713.480469 1538.640625 1708.878906 1539.578125 1704.441406 C 1540.519531 1699.988281 1541.378906 1695.699219 1542.128906 1691.589844 C 1542.890625 1687.480469 1543.550781 1683.539062 1544.109375 1679.789062 C 1544.671875 1676.039062 1545.128906 1672.480469 1545.46875 1669.140625 C 1545.820312 1665.789062 1546.050781 1662.648438 1546.160156 1659.738281 C 1546.28125 1656.828125 1546.269531 1654.148438 1546.140625 1651.710938 C 1545.878906 1646.839844 1545.578125 1642.089844 1545.261719 1637.480469 C 1544.941406 1632.871094 1544.589844 1628.390625 1544.21875 1624.050781 C 1543.691406 1617.941406 1543.089844 1612.460938 1542.488281 1606.898438 C 1520.320312 1639.058594 1495.75 1670.191406 1449.910156 1692.191406 L 1492.390625 1714.359375 C 1471.851562 1740.839844 1457.878906 1767.308594 1409.269531 1793.78125 C 1423.289062 1736.679688 1441.089844 1678.808594 1407.421875 1631.238281 C 1425.410156 1693.578125 1413.820312 1737.449219 1392.640625 1775.320312 L 1204.238281 1644.171875 C 1260.890625 1715.390625 1317.53125 1763.210938 1374.179688 1790.089844 C 1366.539062 1809.058594 1358.449219 1826 1349.261719 1837.871094 C 1363.171875 1834.078125 1377.359375 1829.441406 1390.800781 1827.03125 C 1400.410156 1899.449219 1386.910156 1948.75 1383.410156 2008.058594 C 1383.410156 2008.058594 1344.621094 2087.480469 1302.140625 2070.859375 C 1259.648438 2054.230469 1196.851562 1989.578125 1196.851562 1989.578125 C 1196.851562 1989.578125 1283.660156 2135.511719 1342.769531 2118.878906 C 1401.878906 2102.261719 1381.558594 2129.960938 1381.558594 2129.960938 L 1385.261719 2237.101562 C 1349.109375 2267.300781 1314.808594 2292.128906 1290.878906 2286.910156 C 1307.339844 2310.941406 1328.519531 2334.25 1350.160156 2336.839844 C 1396.339844 2342.390625 1407.429688 2346.078125 1407.429688 2346.078125 C 1394.179688 2360.238281 1396.660156 2377.339844 1382.589844 2391.351562 C 1422.519531 2393.050781 1462.878906 2411.308594 1457.300781 2440.28125 C 1450.660156 2474.75 1407.429688 2479.078125 1407.429688 2479.078125 L 1451.75 2525.25 L 1509.019531 2682.261719 L 1483.160156 2663.78125 Z M 1580.261719 2952.890625 "/>
<path fill-rule="nonzero" fill="rgb(11.767578%, 11.767578%, 11.767578%)" fill-opacity="1" d="M 1266.449219 440.660156 L 1067.429688 471.359375 C 1062.511719 472.121094 1059.140625 476.71875 1059.898438 481.640625 C 1060.660156 486.550781 1065.25 489.921875 1070.171875 489.160156 L 1269.191406 458.460938 C 1274.109375 457.710938 1277.480469 453.109375 1276.71875 448.191406 C 1275.960938 443.28125 1271.359375 439.910156 1266.449219 440.660156 Z M 1266.449219 440.660156 "/>
<path fill-rule="nonzero" fill="rgb(11.767578%, 11.767578%, 11.767578%)" fill-opacity="1" d="M 1099.289062 585.910156 C 1099.421875 586.839844 1099.539062 587.78125 1099.679688 588.710938 C 1100 590.980469 1100.351562 593.238281 1100.699219 595.5 C 1101.050781 597.75 1101.410156 600.011719 1101.789062 602.25 C 1102.171875 604.5 1102.558594 606.75 1102.960938 608.980469 C 1103.371094 611.230469 1103.789062 613.460938 1104.21875 615.691406 C 1104.441406 616.808594 1104.660156 617.921875 1104.878906 619.03125 C 1105.109375 620.148438 1105.328125 621.261719 1105.558594 622.371094 C 1105.789062 623.480469 1106.03125 624.589844 1106.269531 625.691406 C 1106.5 626.808594 1106.75 627.910156 1106.988281 629.019531 L 1168.230469 606.820312 C 1141.28125 603.03125 1120.359375 582.550781 1120.359375 582.550781 L 1115.351562 601.21875 Z M 1099.289062 585.910156 "/>
<path fill-rule="nonzero" fill="rgb(99.609375%, 50.584412%, 38.818359%)" fill-opacity="1" d="M 1365.121094 365.089844 C 1361.71875 363.960938 1358.011719 364.230469 1354.800781 365.839844 C 1351.601562 367.449219 1349.160156 370.269531 1348.039062 373.671875 C 1341.46875 393.550781 1338.140625 408.269531 1339.488281 423.488281 C 1340.839844 438.71875 1346.511719 452.679688 1355.339844 472.21875 C 1356.820312 475.488281 1359.53125 478.03125 1362.878906 479.308594 C 1366.230469 480.570312 1369.949219 480.449219 1373.210938 478.980469 C 1380.011719 475.898438 1383.03125 467.898438 1379.949219 461.109375 C 1371.378906 442.121094 1367.28125 431 1366.410156 421.121094 C 1365.539062 411.238281 1367.53125 400.839844 1373.710938 382.148438 C 1376.050781 375.070312 1372.199219 367.429688 1365.121094 365.089844 Z M 1365.121094 365.089844 "/>
<path fill-rule="nonzero" fill="rgb(78.90625%, 62.693787%, 20.384216%)" fill-opacity="1" d="M 1172.699219 641.230469 L 1185.988281 620.871094 C 1242.960938 589.519531 1299.929688 581.28125 1356.910156 570.390625 L 1394.101562 633.269531 C 1328.859375 611.660156 1251.960938 623.121094 1172.699219 641.230469 Z M 1172.699219 641.230469 "/>
<path fill-rule="nonzero" fill="rgb(72.459412%, 72.459412%, 72.459412%)" fill-opacity="1" d="M 1160.269531 2222.859375 L 1089.21875 2576.691406 L 1066.929688 2766.144531 C 1066.929688 2766.144531 1068.410156 2767.757812 1071.039062 2770.441406 C 1072.359375 2771.78125 1073.960938 2773.394531 1075.808594 2775.203125 C 1077.648438 2777.011719 1079.75 2779.023438 1082.039062 2781.164062 C 1084.339844 2783.308594 1086.839844 2785.585938 1089.5 2787.929688 C 1090.828125 2789.101562 1092.210938 2790.289062 1093.609375 2791.484375 C 1095.019531 2792.679688 1096.460938 2793.886719 1097.929688 2795.09375 C 1099.410156 2796.296875 1100.910156 2797.5 1102.441406 2798.695312 C 1103.96875 2799.890625 1105.519531 2801.074219 1107.101562 2802.242188 C 1108.671875 2803.410156 1110.269531 2804.566406 1111.878906 2805.691406 C 1113.480469 2806.816406 1115.109375 2807.914062 1116.738281 2808.980469 C 1118.371094 2810.046875 1120.011719 2811.082031 1121.660156 2812.074219 C 1123.308594 2813.0625 1124.960938 2814.011719 1126.609375 2814.90625 C 1128.25 2815.804688 1129.898438 2816.652344 1131.539062 2817.441406 C 1133.191406 2818.226562 1134.820312 2818.953125 1136.449219 2819.613281 C 1138.070312 2820.273438 1139.691406 2820.859375 1141.289062 2821.378906 C 1142.089844 2821.636719 1142.878906 2821.875 1143.679688 2822.09375 C 1144.460938 2822.3125 1145.25 2822.511719 1146.03125 2822.691406 C 1146.808594 2822.867188 1147.578125 2823.027344 1148.351562 2823.160156 C 1149.121094 2823.292969 1149.878906 2823.40625 1150.640625 2823.496094 C 1151.390625 2823.585938 1152.140625 2823.648438 1152.890625 2823.691406 C 1153.628906 2823.734375 1154.359375 2823.753906 1155.089844 2823.746094 C 1155.808594 2823.734375 1156.53125 2823.699219 1157.238281 2823.640625 C 1157.949219 2823.578125 1158.660156 2823.496094 1159.351562 2823.378906 C 1160.039062 2823.265625 1160.71875 2823.125 1161.390625 2822.957031 C 1162.070312 2822.789062 1162.730469 2822.589844 1163.378906 2822.363281 C 1164.039062 2822.132812 1164.679688 2821.878906 1165.308594 2821.589844 C 1165.929688 2821.300781 1166.558594 2820.984375 1167.160156 2820.632812 C 1167.769531 2820.285156 1168.371094 2819.898438 1168.949219 2819.484375 C 1169.53125 2819.070312 1170.101562 2818.625 1170.660156 2818.144531 C 1171.210938 2817.664062 1171.761719 2817.148438 1172.289062 2816.597656 C 1172.820312 2816.050781 1173.339844 2815.464844 1173.839844 2814.84375 C 1174.339844 2814.226562 1174.820312 2813.570312 1175.300781 2812.875 C 1175.769531 2812.183594 1176.230469 2811.457031 1176.671875 2810.6875 C 1177.109375 2809.917969 1177.53125 2809.113281 1177.941406 2808.265625 C 1178.351562 2807.421875 1178.738281 2806.539062 1179.121094 2805.613281 C 1179.5 2804.691406 1179.851562 2803.730469 1180.191406 2802.722656 C 1180.539062 2801.71875 1180.859375 2800.671875 1181.160156 2799.582031 C 1186.039062 2782.167969 1193.789062 2754.832031 1202.671875 2723.621094 C 1211.550781 2692.410156 1221.558594 2657.320312 1230.96875 2624.410156 C 1249.769531 2558.589844 1266.140625 2501.46875 1266.140625 2501.46875 Z M 1160.269531 2222.859375 "/>
<path fill-rule="nonzero" fill="rgb(88.671875%, 94.139099%, 77.734375%)" fill-opacity="1" d="M 1757.480469 561.949219 C 1788.601562 527.609375 1862.878906 544.558594 1924.019531 599.980469 L 2059.019531 722.308594 L 2319.828125 590.949219 L 2487.101562 668.140625 L 2211.558594 860.519531 L 2408.25 1038.75 C 2414.679688 1044.601562 2420.679688 1050.570312 2426.25 1056.730469 L 2548.988281 1022.03125 L 2657.191406 1080.269531 L 2463.558594 1199.539062 L 2463.5 1199.539062 C 2463.101562 1199.601562 2462.808594 1200.460938 2462.46875 1200.859375 C 2462.070312 1200.921875 2461.71875 1201.789062 2461.289062 1201.96875 L 2461.351562 1201.960938 L 2361.691406 1406.390625 L 2293.089844 1304.441406 L 2315.570312 1178.878906 C 2308.898438 1173.898438 2302.328125 1168.550781 2295.910156 1162.730469 L 2099.21875 984.511719 L 1934.839844 1277.621094 L 1841.589844 1118.738281 L 1944.421875 844.238281 L 1811.691406 723.960938 C 1750.539062 668.558594 1726.359375 596.300781 1757.480469 561.960938 Z M 1757.480469 561.949219 "/>
<path fill-rule="nonzero" fill="rgb(88.671875%, 94.139099%, 77.734375%)" fill-opacity="1" d="M 2905.199219 2097.308594 L 2903.621094 2055.648438 L 1944.859375 1096.890625 L 1924.808594 1116.929688 Z M 2905.199219 2097.308594 "/>
<path fill-rule="nonzero" fill="rgb(88.671875%, 94.139099%, 77.734375%)" fill-opacity="1" d="M 2894.050781 1802.691406 L 2892.46875 1761.019531 L 2390.320312 1258.871094 L 2370.269531 1278.910156 Z M 2894.050781 1802.691406 "/>
<path fill-rule="nonzero" fill="rgb(88.671875%, 94.139099%, 77.734375%)" fill-opacity="1" d="M 2889.628906 1685.769531 L 2888.050781 1644.109375 L 2273.328125 1029.390625 L 2253.28125 1049.429688 Z M 2889.628906 1685.769531 "/>
<path fill-rule="nonzero" fill="rgb(88.671875%, 94.139099%, 77.734375%)" fill-opacity="1" d="M 2871.21875 1199.410156 L 2869.640625 1157.738281 L 2376.820312 664.921875 L 2356.769531 684.960938 Z M 2871.21875 1199.410156 "/>
<path fill-rule="nonzero" fill="rgb(65.429688%, 78.90625%, 38.818359%)" fill-opacity="1" d="M 804.949219 2669.441406 L 798.765625 2668.898438 C 800.785156 2670.050781 802.855469 2670.160156 804.949219 2669.441406 Z M 804.949219 2669.441406 "/>
<path fill-rule="nonzero" fill="rgb(51.756287%, 66.209412%, 23.143005%)" fill-opacity="1" d="M 844.761719 2554.191406 L 941.515625 2566.078125 C 934.152344 2453.460938 910.632812 2278.441406 837.8125 2131.601562 C 868.792969 2277.480469 862.699219 2445.191406 844.761719 2554.191406 Z M 844.761719 2554.191406 "/>
<path fill-rule="nonzero" fill="rgb(65.429688%, 78.90625%, 38.818359%)" fill-opacity="1" d="M 497.589844 1825.359375 C 437.574219 1823.671875 393.046875 1832.101562 393.046875 1832.101562 C 394.636719 1831.5 438.53125 1838.308594 498.671875 1858.089844 Z M 497.589844 1825.359375 "/>
<path fill-rule="nonzero" fill="rgb(51.756287%, 66.209412%, 23.143005%)" fill-opacity="1" d="M 497.589844 1825.359375 L 498.671875 1858.089844 C 593.539062 1889.308594 729.121094 1953.089844 805.109375 2072.988281 C 817.03125 2091.808594 827.828125 2111.460938 837.8125 2131.601562 C 824.199219 2067.488281 803.53125 2007.578125 773.410156 1958.878906 C 707.472656 1852.28125 585.6875 1827.820312 497.589844 1825.359375 Z M 497.589844 1825.359375 "/>
<path fill-rule="nonzero" fill="rgb(65.429688%, 78.90625%, 38.818359%)" fill-opacity="1" d="M 949.140625 2678.910156 L 944.574219 2681.578125 C 946.597656 2681.378906 948.074219 2680.429688 949.140625 2678.910156 Z M 949.140625 2678.910156 "/>
<path fill-rule="nonzero" fill="rgb(65.429688%, 78.90625%, 38.818359%)" fill-opacity="1" d="M 905.675781 2561.679688 L 1057.871094 2580.390625 C 1014.78125 2493.460938 864.488281 2218.839844 643.742188 2127.96875 C 596.871094 2108.679688 550.621094 2103.851562 506.929688 2108.121094 C 666.519531 2206.300781 829 2424.449219 905.675781 2561.679688 Z M 905.675781 2561.679688 "/>
<path fill-rule="nonzero" fill="rgb(65.429688%, 78.90625%, 38.818359%)" fill-opacity="1" d="M 506.921875 2108.121094 C 488.042969 2096.511719 469.203125 2086.371094 450.550781 2078.449219 C 256.566406 1996.128906 225.269531 2257.929688 225.269531 2257.929688 C 227.191406 2255.101562 350.679688 2123.410156 506.921875 2108.121094 Z M 506.921875 2108.121094 "/>
<path fill-rule="nonzero" fill="rgb(51.756287%, 66.209412%, 23.143005%)" fill-opacity="1" d="M 665.207031 2532.109375 L 747.238281 2542.191406 C 711.257812 2457.839844 666.570312 2378.710938 576.886719 2326.570312 C 613.160156 2395.078125 646.519531 2463.589844 665.207031 2532.109375 Z M 665.207031 2532.109375 "/>
<path fill-rule="nonzero" fill="rgb(65.429688%, 78.90625%, 38.818359%)" fill-opacity="1" d="M 2810.679688 3039.753906 L 2805.449219 3040.554688 C 2807.398438 3041.117188 2809.128906 3040.773438 2810.679688 3039.753906 Z M 2810.679688 3039.753906 "/>
<path fill-rule="nonzero" fill="rgb(51.756287%, 66.209412%, 23.143005%)" fill-opacity="1" d="M 2911.339844 2775.152344 C 2911.511719 2774.949219 2911.691406 2774.75 2911.851562 2774.542969 C 2912.648438 2773.539062 2913.429688 2772.515625 2914.179688 2771.472656 C 2914.929688 2770.425781 2915.648438 2769.363281 2916.359375 2768.28125 C 2917.058594 2767.199219 2917.730469 2766.101562 2918.378906 2764.984375 C 2919.03125 2763.867188 2919.648438 2762.730469 2920.25 2761.582031 C 2920.839844 2760.433594 2921.410156 2759.265625 2921.949219 2758.085938 C 2922.488281 2756.90625 2923 2755.710938 2923.480469 2754.503906 C 2923.960938 2753.292969 2924.410156 2752.074219 2924.839844 2750.839844 C 2925.261719 2749.609375 2925.648438 2748.359375 2926.011719 2747.109375 C 2926.371094 2745.851562 2926.699219 2744.578125 2926.988281 2743.300781 C 2927.289062 2742.03125 2927.558594 2740.75 2927.789062 2739.449219 C 2928 2738.25 2928.179688 2737.039062 2928.339844 2735.828125 C 2900.820312 2666.101562 2873.859375 2562.550781 2844.761719 2391.570312 C 2768.078125 1941.058594 2413.410156 1734.96875 2413.410156 1734.96875 C 2691.21875 2022.160156 2762.980469 2505.441406 2911.339844 2775.152344 Z M 2911.339844 2775.152344 "/>
<path fill-rule="nonzero" fill="rgb(65.429688%, 78.90625%, 38.818359%)" fill-opacity="1" d="M 2791.339844 2793.546875 L 2851.570312 2800.953125 C 2852.898438 2801.117188 2854.21875 2801.234375 2855.539062 2801.3125 C 2856.859375 2801.386719 2858.160156 2801.421875 2859.46875 2801.414062 C 2860.769531 2801.410156 2862.058594 2801.359375 2863.339844 2801.269531 C 2864.628906 2801.183594 2865.898438 2801.054688 2867.171875 2800.886719 C 2868.429688 2800.71875 2869.691406 2800.511719 2870.929688 2800.269531 C 2872.179688 2800.023438 2873.410156 2799.742188 2874.640625 2799.425781 C 2875.859375 2799.109375 2877.070312 2798.753906 2878.269531 2798.367188 C 2879.46875 2797.976562 2880.648438 2797.554688 2881.820312 2797.09375 C 2882.988281 2796.636719 2884.148438 2796.148438 2885.289062 2795.625 C 2886.429688 2795.101562 2887.558594 2794.542969 2888.671875 2793.957031 C 2889.789062 2793.371094 2890.878906 2792.75 2891.960938 2792.101562 C 2893.039062 2791.457031 2894.109375 2790.777344 2895.148438 2790.070312 C 2896.199219 2789.363281 2897.21875 2788.628906 2898.230469 2787.867188 C 2899.238281 2787.101562 2900.230469 2786.3125 2901.199219 2785.5 C 2902.179688 2784.683594 2903.128906 2783.839844 2904.058594 2782.972656 C 2904.988281 2782.109375 2905.898438 2781.21875 2906.789062 2780.300781 C 2907.679688 2779.386719 2908.539062 2778.449219 2909.390625 2777.488281 C 2910.230469 2776.527344 2911.058594 2775.546875 2911.851562 2774.542969 C 2912.078125 2774.257812 2912.289062 2773.957031 2912.511719 2773.667969 C 2882.078125 2651.269531 2827.449219 2509.53125 2729.558594 2415.070312 C 2693.089844 2379.878906 2651.859375 2358.371094 2609.660156 2346.25 C 2696.21875 2461.960938 2758.050781 2644.480469 2791.339844 2793.546875 Z M 2791.339844 2793.546875 "/>
</svg>
